<svg width="24px" height="24px" viewBox="0 0 24 24" fill="none" xmlns="http://www.w3.org/2000/svg">
<path fill="#438e8a" d="M18.79 11.82C18.6912 11.8223 18.593 11.8038 18.5018 11.766C18.4105 11.7281 18.3282 11.6716 18.26 11.6L13.05 6.40002C12.9175 6.25785 12.8454 6.0698 12.8488 5.8755C12.8523 5.6812 12.931 5.49582 13.0684 5.3584C13.2058 5.22099 13.3912 5.14228 13.5855 5.13885C13.7798 5.13542 13.9678 5.20754 14.11 5.34002L19.32 10.54C19.4605 10.6807 19.5393 10.8713 19.5393 11.07C19.5393 11.2688 19.4605 11.4594 19.32 11.6C19.2508 11.6701 19.1682 11.7257 19.0772 11.7635C18.9862 11.8013 18.8885 11.8205 18.79 11.82Z" />
<path fill="#438e8a" d="M13.63 11.77C13.5315 11.7705 13.4338 11.7513 13.3428 11.7135C13.2518 11.6757 13.1692 11.6201 13.1 11.55C12.9596 11.4094 12.8807 11.2188 12.8807 11.02C12.8807 10.8213 12.9596 10.6306 13.1 10.49L18.31 5.29001C18.3789 5.21925 18.4614 5.16301 18.5524 5.12462C18.6434 5.08622 18.7412 5.06644 18.84 5.06644C18.9388 5.06644 19.0366 5.08622 19.1276 5.12462C19.2186 5.16301 19.3011 5.21925 19.37 5.29001C19.5105 5.43063 19.5893 5.62126 19.5893 5.82001C19.5893 6.01876 19.5105 6.20938 19.37 6.35001L14.16 11.55C14.0911 11.6206 14.0086 11.6765 13.9175 11.7143C13.8264 11.7521 13.7286 11.771 13.63 11.77Z" />
<path fill="#438e8a" d="M7.79001 11.8C7.1215 11.8 6.46802 11.6018 5.91218 11.2304C5.35634 10.859 4.92312 10.3311 4.66729 9.71348C4.41147 9.09587 4.34453 8.41626 4.47495 7.76061C4.60537 7.10495 4.92728 6.50269 5.39998 6.02999C5.87269 5.55729 6.47494 5.23537 7.1306 5.10496C7.78626 4.97454 8.46586 5.04147 9.08348 5.2973C9.70109 5.55312 10.229 5.98634 10.6004 6.54218C10.9718 7.09802 11.17 7.75151 11.17 8.42001C11.1674 9.31563 10.8104 10.1738 10.1771 10.8071C9.54381 11.4404 8.68563 11.7974 7.79001 11.8ZM7.79001 6.54001C7.41818 6.54001 7.0547 6.65027 6.74553 6.85685C6.43637 7.06342 6.1954 7.35704 6.05311 7.70057C5.91082 8.04409 5.87359 8.4221 5.94613 8.78678C6.01867 9.15146 6.19772 9.48645 6.46064 9.74937C6.72357 10.0123 7.05855 10.1913 7.42324 10.2639C7.78792 10.3364 8.16593 10.2992 8.50945 10.1569C8.85298 10.0146 9.14659 9.77365 9.35317 9.46448C9.55974 9.15532 9.67001 8.79184 9.67001 8.42001C9.67001 7.9214 9.47193 7.44322 9.11937 7.09065C8.7668 6.73808 8.28861 6.54001 7.79001 6.54001Z" />
<path fill="#438e8a" d="M7.79001 20C7.1215 20 6.46802 19.8018 5.91218 19.4304C5.35634 19.059 4.92312 18.5311 4.66729 17.9135C4.41147 17.2959 4.34453 16.6163 4.47495 15.9606C4.60537 15.305 4.92728 14.7027 5.39998 14.23C5.87269 13.7573 6.47494 13.4354 7.1306 13.305C7.78626 13.1746 8.46586 13.2415 9.08348 13.4973C9.70109 13.7531 10.229 14.1864 10.6004 14.7422C10.9718 15.298 11.17 15.9515 11.17 16.62C11.1674 17.5156 10.8104 18.3738 10.1771 19.0071C9.54381 19.6404 8.68563 19.9974 7.79001 20ZM7.79001 14.74C7.41818 14.74 7.0547 14.8503 6.74553 15.0569C6.43637 15.2634 6.1954 15.5571 6.05311 15.9006C5.91082 16.2441 5.87359 16.6221 5.94613 16.9868C6.01867 17.3515 6.19772 17.6865 6.46064 17.9494C6.72357 18.2123 7.05855 18.3914 7.42324 18.4639C7.78792 18.5364 8.16593 18.4992 8.50945 18.3569C8.85298 18.2146 9.14659 17.9737 9.35317 17.6645C9.55974 17.3553 9.67001 16.9919 9.67001 16.62C9.67001 16.1214 9.47193 15.6432 9.11937 15.2907C8.7668 14.9381 8.28861 14.74 7.79001 14.74Z" />
<path fill="#438e8a" d="M16.21 20C15.5415 20 14.888 19.8018 14.3322 19.4304C13.7763 19.059 13.3431 18.5311 13.0873 17.9135C12.8315 17.2959 12.7645 16.6163 12.8949 15.9606C13.0254 15.305 13.3473 14.7027 13.82 14.23C14.2927 13.7573 14.8949 13.4354 15.5506 13.305C16.2063 13.1746 16.8859 13.2415 17.5035 13.4973C18.1211 13.7531 18.649 14.1864 19.0204 14.7422C19.3918 15.298 19.59 15.9515 19.59 16.62C19.5874 17.5156 19.2304 18.3738 18.5971 19.0071C17.9638 19.6404 17.1056 19.9974 16.21 20ZM16.21 14.74C15.8382 14.74 15.4747 14.8503 15.1655 15.0569C14.8564 15.2634 14.6154 15.5571 14.4731 15.9006C14.3308 16.2441 14.2936 16.6221 14.3661 16.9868C14.4387 17.3515 14.6177 17.6865 14.8806 17.9494C15.1436 18.2123 15.4785 18.3914 15.8432 18.4639C16.2079 18.5364 16.5859 18.4992 16.9294 18.3569C17.273 18.2146 17.5666 17.9737 17.7732 17.6645C17.9797 17.3553 18.09 16.9919 18.09 16.62C18.09 16.1214 17.8919 15.6432 17.5394 15.2907C17.1868 14.9381 16.7086 14.74 16.21 14.74Z" />
</svg>
