<svg version="1.1" id="Layer_1" xmlns="http://www.w3.org/2000/svg" xmlns:xlink="http://www.w3.org/1999/xlink" x="0px" y="0px" viewBox="0 0 502 502" style="enable-background:new 0 0 502 502;" xml:space="preserve">
<path fill="#438e8a" d="M500.401,125.623c-1.842-2.853-5.005-4.575-8.401-4.575H66.964c-3.005,0-5.852,1.352-7.751,3.682c-1.899,2.329-2.649,5.39-2.044,8.333l39.436,191.704c0.957,4.649,5.049,7.985,9.795,7.985h299.059c3.931,0,7.497-2.303,9.114-5.886l86.541-191.704C502.511,132.067,502.243,128.476,500.401,125.623z M399.001,312.752H114.552l-5.35-26.009h218.48c5.523,0,10-4.478,10-10s-4.477-10-10-10H105.305c-0.073,0-0.143,0.009-0.215,0.011l-6.029-29.307h214.38c5.523,0,10-4.478,10-10s-4.477-10-10-10H94.947l-6.477-31.486h216.208c5.523,0,10-4.478,10-10s-4.477-10-10-10H84.355l-5.125-24.913h397.284L399.001,312.752z"/>
<path fill="#438e8a" d="M61.343,102.513c5.419-1.067,8.946-6.325,7.879-11.744l-6.688-33.953c-0.923-4.688-5.034-8.067-9.812-8.067H10c-5.523,0-10,4.478-10,10s4.477,10,10,10h34.5l5.099,25.886c0.939,4.767,5.12,8.069,9.801,8.069C60.041,102.703,60.691,102.641,61.343,102.513z"/>
<path fill="#438e8a" d="M166.102,353.284c-27.561,0-49.984,22.423-49.984,49.984c0,27.561,22.423,49.983,49.984,49.983c27.562,0,49.984-22.423,49.984-49.983C216.086,375.707,193.664,353.284,166.102,353.284z M166.102,433.252c-16.533,0-29.984-13.45-29.984-29.983s13.451-29.984,29.984-29.984c16.534,0,29.984,13.451,29.984,29.984S182.636,433.252,166.102,433.252z"/>
<path fill="#438e8a" d="M343.566,353.284c-27.561,0-49.984,22.423-49.984,49.984c0,27.561,22.423,49.983,49.984,49.983s49.984-22.423,49.984-49.983C393.55,375.707,371.127,353.284,343.566,353.284z M343.566,433.252c-16.533,0-29.984-13.45-29.984-29.983s13.451-29.984,29.984-29.984s29.984,13.451,29.984,29.984S360.099,433.252,343.566,433.252z"/>
<path fill="#438e8a" d="M352.877,185.961h35.054c5.523,0,10-4.478,10-10s-4.477-10-10-10h-35.054c-5.523,0-10,4.478-10,10S347.354,185.961,352.877,185.961z"/>
</svg>
