<svg version="1.1" id="Layer_1" xmlns="http://www.w3.org/2000/svg" xmlns:xlink="http://www.w3.org/1999/xlink" x="0px" y="0px" viewBox="0 0 511.999 511.999" style="enable-background:new 0 0 511.999 511.999;" xml:space="preserve">
<path fill="#8282b4" d="M248.139,121.263V80.842c-7.303,0-13.472-6.171-13.472-13.474V53.895C234.666,24.177,210.489,0,180.772,0c-29.718,0-53.895,24.177-53.895,53.895v124.739c-23.522,8.343-40.421,30.808-40.421,57.155c0,21.835,11.606,41.007,28.968,51.682c-6.331,9.882-14.013,22.236-21.749,35.573c-38.659,66.641-38.659,89.403-38.659,96.884c0,50.768,41.302,92.07,92.07,92.07c50.767,0,92.07-41.302,92.07-92.07c0-7.479,0-30.242-38.657-96.884c-7.737-13.338-15.418-25.692-21.749-35.573c17.364-10.677,28.968-29.847,28.968-51.682c0-26.348-16.899-48.812-40.421-57.155V53.895c0-7.303,6.171-13.474,13.474-13.474s13.474,6.171,13.474,13.474v13.474C194.244,97.086,218.421,121.263,248.139,121.263z M198.738,419.93c-0.001,28.479-23.172,51.649-51.65,51.649c-28.479,0-51.649-23.169-51.649-51.649c0-4.533,2.386-23.438,33.075-76.384c6.455-11.135,12.951-21.674,18.575-30.534c5.582,8.794,12.027,19.25,18.447,30.317C196.343,396.436,198.738,415.387,198.738,419.93z M167.298,235.789c0,11.144-9.066,20.211-20.211,20.211c-11.144,0-20.211-9.066-20.211-20.211c0-11.144,9.066-20.211,20.211-20.211C158.232,215.579,167.298,224.645,167.298,235.789z"/>
<path fill="#8282b4" d="M456.982,121.263V80.842c-7.303,0-13.474-6.171-13.474-13.474V53.895C443.509,24.177,419.331,0,389.614,0c-29.718,0-53.895,24.177-53.895,53.895v124.739c-23.522,8.343-40.421,30.808-40.421,57.155c0,21.835,11.606,41.007,28.968,51.682c-6.331,9.882-14.013,22.236-21.749,35.573c-38.659,66.641-38.659,89.403-38.659,96.884c0,50.768,41.302,92.07,92.07,92.07c50.768,0,92.07-41.302,92.07-92.07c0-7.479,0-30.242-38.657-96.884c-7.737-13.338-15.418-25.692-21.749-35.573c17.364-10.677,28.968-29.847,28.968-51.682c0-26.348-16.899-48.812-40.421-57.155V53.895c0-7.303,6.171-13.474,13.474-13.474c7.303,0,13.474,6.171,13.474,13.474v13.474C403.088,97.086,427.263,121.263,456.982,121.263z M407.58,419.93c-0.001,28.479-23.172,51.649-51.65,51.649c-28.479,0-51.649-23.169-51.649-51.649c0-4.533,2.386-23.438,33.075-76.384c6.455-11.135,12.951-21.674,18.575-30.534c5.582,8.794,12.027,19.25,18.447,30.317C405.185,396.436,407.58,415.387,407.58,419.93z M376.14,235.789c0,11.144-9.066,20.211-20.211,20.211c-11.144,0-20.211-9.066-20.211-20.211c0-11.144,9.066-20.211,20.211-20.211C367.074,215.579,376.14,224.645,376.14,235.789z"/>
<circle fill="#8282b4" cx="147.092" cy="417.684" r="20.211"/>
<circle fill="#8282b4" cx="355.934" cy="417.684" r="20.211"/>
</svg>
