<?xml version="1.0" encoding="iso-8859-1"?>
<svg version="1.1" id="Layer_1" xmlns="http://www.w3.org/2000/svg" xmlns:xlink="http://www.w3.org/1999/xlink" x="0px" y="0px" viewBox="0 0 512 512" style="enable-background:new 0 0 512 512;" xml:space="preserve">
<path style="fill:#FFCE2A;" d="M256,0l-20.898,256L256,512c141.385,0,256-114.615,256-256S397.385,0,256,0z"/>
<path style="fill:#FDEB95;" d="M0,256c0,141.385,114.615,256,256,256V0C114.615,0,0,114.615,0,256z"/>
<path style="fill:#FFAD00;" d="M256,53.897L235.102,256L256,458.103c111.44,0,202.103-90.663,202.103-202.103S367.44,53.897,256,53.897z"/>
<path style="fill:#FFCE2A;" d="M53.897,256c0,111.44,90.663,202.103,202.103,202.103V53.897C144.56,53.897,53.897,144.56,53.897,256z"/>
<path style="fill:#53B400;" d="M382.12,230.753c0-20.085-16.283-36.368-36.368-36.368c-12.833,0-25.073,3.222-36.324,8.187l0,0L235.102,256l74.326,53.428c11.251,4.963,23.49,8.187,36.324,8.187c20.085,0,36.368-16.283,36.368-36.367c0-9.81-3.891-18.706-10.206-25.248C378.229,249.459,382.12,240.563,382.12,230.753z"/>
<g>
	<path style="fill:#6CD800;" d="M202.572,202.572c-11.251-4.963-23.49-8.187-36.324-8.187c-20.085,0-36.368,16.283-36.368,36.368c0,9.81,3.891,18.706,10.206,25.247c-6.314,6.541-10.206,15.437-10.206,25.247c0,20.085,16.283,36.368,36.368,36.368c12.833,0,25.073-3.223,36.324-8.187l0,0l37.232-15.811L256,256l-20.898-43.363L202.572,202.572z"/>
	<path style="fill:#6CD800;" d="M309.428,202.572c4.963-11.251,8.187-23.49,8.187-36.324c0-20.085-16.283-36.368-36.368-36.368c-9.81,0-18.706,3.891-25.247,10.206l-20.898,52.855L256,256L309.428,202.572z"/>
	<path style="fill:#6CD800;" d="M256,256l-20.898,63.06L256,371.915c6.541,6.314,15.437,10.206,25.247,10.206c20.085,0,36.368-16.283,36.368-36.368c0-12.833-3.223-25.073-8.187-36.324L256,256z"/>
</g>
<g>
	<path style="fill:#93F340;" d="M256,140.085L256,140.085c-6.541-6.314-15.437-10.206-25.247-10.206c-20.085,0-36.368,16.283-36.368,36.368c0,12.833,3.222,25.073,8.187,36.324L256,256l0,0V140.085z"/>
	<path style="fill:#93F340;" d="M256,256l-53.428,53.428c-4.963,11.251-8.187,23.49-8.187,36.324c0,20.085,16.283,36.368,36.368,36.368c9.81,0,18.706-3.891,25.247-10.206l0,0L256,256L256,256z"/>
</g>
</svg>