<?xml version="1.0" encoding="iso-8859-1"?>
<svg version="1.1" id="Layer_1" xmlns="http://www.w3.org/2000/svg" xmlns:xlink="http://www.w3.org/1999/xlink" x="0px" y="0px" viewBox="0 0 496.2 496.2" style="enable-background:new 0 0 496.2 496.2;" xml:space="preserve">
<path style="fill:#727E76;" d="M496.2,248.1C496.2,111.1,385.1,0,248.1,0S0,111.1,0,248.1s111.1,248.1,248.1,248.1S496.2,385.1,496.2,248.1z"/>
<path style="fill:#E5E1D8;" d="M372.6,372.6c68.8-68.8,68.8-180.3,0-249c-68.8-68.8-180.2-68.8-249,0s-68.8,180.2,0,249S303.8,441.4,372.6,372.6z"/>
<path style="fill:#D3D0C7;" d="M372.6,372.6c68.8-68.8,68.8-180.3,0-249l-249,249C192.4,441.4,303.8,441.4,372.6,372.6z"/>
<path style="fill:#BAB7B1;" d="M363.4,363.4c63.7-63.7,63.7-166.9,0-230.6s-166.9-63.7-230.6,0s-63.7,166.9,0,230.6S299.7,427.1,363.4,363.4z"/>
<path style="fill:#AAA596;" d="M363.4,363.4c63.7-63.7,63.7-166.9,0-230.6L132.8,363.4C196.5,427.1,299.7,427.1,363.4,363.4z"/>
<path style="fill:#E5E1D8;" d="M336.4,336.4c48.8-48.8,48.8-127.9,0-176.7s-127.9-48.8-176.7,0s-48.8,127.9,0,176.7S287.7,385.2,336.4,336.4z"/>
<path style="fill:#D3D0C7;" d="M336.4,336.4c48.8-48.8,48.8-127.9,0-176.7L159.8,336.4C208.5,385.2,287.7,385.2,336.4,336.4z"/>
<path style="fill:#BAB7B1;" d="M196.8,265.1c-9.2,0-13.2-4.5-13.2-10.5v-2.7c0-5.7,4-10.5,13.2-10.5H221c0.3,0-38.9-60.1-38.9-60.1c-1.2-2,3.7-15.2,21.2-15.2c7.5,0,13.2,3.7,17.4,12.7l27.7,52.1l28.4-52.1c5-9.5,10.7-13,18-13c15,0,20.4,13.7,19.4,15.5l-38.9,60.1h23.9c9.5,0,13.5,4.7,13.5,10.5v2.7c0,6-4,10.5-13.5,10.5h-34.7v13.2h34.7c9.5,0,13.5,4.5,13.5,10.5v2.7c0,5.7-4,10.5-13.5,10.5h-34.7v11.5c0,11.2-4.2,17-14.7,17h-3.7c-10.2,0-14.2-5.7-14.2-17V302h-35.2c-9.2,0-13.2-4.7-13.2-10.5v-2.7c0-6,4-10.5,13.2-10.5h35.2v-13.2H196.8z"/>
<g>
	<polygon style="fill:#D3D0C7;" points="231.9,265.1 231.1,265.1 217.9,278.3 231.9,278.3"/>
	<path style="fill:#D3D0C7;" d="M336.4,159.8l-23.5,23.5l-37.6,58.1h23.9c9.5,0,13.5,4.7,13.5,10.5v2.7c0,6-4,10.5-13.5,10.5h-34.7v13.2h34.7c9.5,0,13.5,4.5,13.5,10.5v2.7c0,5.7-4,10.5-13.5,10.5h-34.7v11.5c0,11.2-4.2,17-14.7,17h-3.7c-10.2,0-14.2-5.7-14.2-17V302h-35.2c-0.8,0-1.6-0.1-2.4-0.1l-34.6,34.6c48.8,48.8,127.9,48.8,176.7,0S385.2,208.5,336.4,159.8z"/>
</g>
<path style="fill:#BAB7B1;" d="M196.8,278.3c-9.2,0-13.2,4.5-13.2,10.5v2.7c0,5.2,3.3,9.6,10.8,10.3l23.6-23.6h-21.2V278.3z"/>
<path style="fill:#AAA596;" d="M231.9,302v11.5c0,11.2,4,17,14.2,17h3.8c10.5,0,14.7-5.7,14.7-17V302h34.7c9.5,0,13.5-4.7,13.5-10.5v-2.7c0-6-4-10.5-13.5-10.5h-34.7v-13.2h34.7c9.5,0,13.5-4.5,13.5-10.5v-2.7c0-5.7-4-10.5-13.5-10.5h-23.9l37.6-58.1l-81.9,81.8h0.8v13.2h-14l-23.6,23.6c0.8,0.1,1.5,0.1,2.4,0.1L231.9,302L231.9,302z"/>
</svg>