<?xml version="1.0" standalone="no"?>
<!DOCTYPE svg PUBLIC "-//W3C//DTD SVG 20010904//EN"
 "http://www.w3.org/TR/2001/REC-SVG-20010904/DTD/svg10.dtd">
<svg version="1.0" xmlns="http://www.w3.org/2000/svg"
 width="700.000000pt" height="700.000000pt" viewBox="0 0 700.000000 700.000000"
 preserveAspectRatio="xMidYMid meet">
<metadata>
Created by potrace 1.14, written by Peter Selinger 2001-2017
</metadata>
<g transform="translate(0.000000,700.000000) scale(0.100000,-0.100000)"
fill="#000000" stroke="none">
<path d="M915 5874 c-7 -50 -12 -75 -20 -116 -4 -15 -8 -39 -10 -55 -4 -28
-33 -197 -115 -663 -22 -129 -43 -248 -45 -265 -3 -16 -11 -65 -19 -110 -25
-130 -26 -137 -37 -210 -6 -38 -14 -86 -19 -105 -5 -19 -11 -53 -15 -75 -8
-56 -24 -156 -29 -180 -2 -11 -7 -40 -11 -65 -9 -58 -13 -79 -21 -113 -3 -16
-7 -38 -9 -50 -2 -18 -28 -171 -40 -237 -1 -8 -6 -35 -10 -60 -4 -25 -9 -54
-12 -65 -2 -11 -6 -29 -7 -40 -10 -59 -37 -214 -41 -237 -3 -16 -7 -40 -10
-55 -3 -16 -8 -44 -11 -63 -2 -19 -12 -73 -20 -120 -9 -47 -18 -95 -20 -108
-9 -55 -24 -140 -29 -172 -6 -39 -16 -95 -21 -125 -4 -18 -77 -440 -89 -510
-3 -16 -8 -41 -10 -55 -3 -14 -8 -38 -11 -55 -2 -16 -9 -56 -15 -88 -6 -32
-12 -70 -14 -85 -6 -50 -36 -216 -40 -222 -2 -3 -6 -29 -10 -59 -4 -30 -9 -63
-11 -75 -7 -37 -37 -201 -39 -216 -4 -33 -16 -116 -18 -125 -2 -10 187 -15
202 -5 5 3 185 424 401 935 400 949 475 1125 715 1695 76 179 161 381 190 450
172 409 328 779 340 805 7 17 50 118 95 225 45 107 122 288 170 403 l88 207
-27 1 c-14 1 -35 3 -46 4 -11 1 -65 6 -120 9 -55 4 -116 9 -135 11 -19 2 -73
7 -120 10 -47 4 -105 8 -130 10 -25 2 -83 7 -130 10 -47 4 -105 8 -130 10 -25
2 -81 6 -125 10 -44 3 -102 8 -130 10 -27 2 -97 7 -155 11 -58 3 -108 8 -111
10 -4 2 -10 -17 -14 -42z"/>
<path d="M2461 5883 c-5 -21 -12 -56 -15 -78 -3 -22 -14 -89 -25 -150 -11 -60
-22 -123 -25 -140 -6 -38 -35 -202 -41 -235 -2 -14 -14 -79 -25 -145 -12 -66
-23 -131 -26 -145 -2 -14 -8 -52 -14 -85 -5 -33 -12 -71 -15 -85 -6 -27 -33
-187 -41 -235 -2 -16 -11 -66 -19 -110 -8 -44 -17 -96 -20 -115 -3 -19 -8 -42
-10 -50 -2 -8 -6 -33 -10 -55 -9 -64 -24 -158 -30 -185 -3 -14 -10 -52 -15
-85 -13 -78 -18 -109 -30 -170 -5 -27 -11 -63 -14 -80 -8 -58 -36 -221 -46
-265 -5 -25 -11 -58 -14 -75 -5 -37 -16 -102 -22 -135 -54 -313 -61 -355 -79
-450 -3 -14 -8 -43 -11 -65 -3 -22 -14 -85 -24 -140 -10 -55 -26 -143 -34
-195 -22 -131 -25 -148 -36 -205 -5 -27 -11 -66 -14 -85 -3 -19 -15 -87 -27
-150 -11 -63 -22 -126 -24 -140 -2 -14 -19 -115 -39 -225 -19 -110 -38 -216
-41 -235 -3 -19 -15 -85 -25 -147 -11 -61 -20 -118 -20 -125 0 -11 22 -14 102
-13 l102 0 24 55 c13 30 92 215 174 410 243 577 259 614 273 645 7 17 61 145
120 285 59 140 113 269 120 285 8 17 75 175 149 353 75 177 197 467 272 645
75 177 185 438 245 581 60 142 116 273 123 290 41 88 494 1171 492 1173 -2 2
-27 5 -57 8 -143 12 -199 16 -254 20 -33 2 -89 6 -125 9 -36 3 -101 8 -145 11
-44 3 -102 8 -130 10 -54 5 -129 11 -370 29 -33 3 -105 8 -160 12 -55 3 -103
8 -107 10 -4 3 -11 -12 -17 -33z"/>
<path d="M4010 5917 c0 -3 -7 -40 -14 -83 -8 -44 -17 -92 -20 -109 -2 -16 -13
-82 -25 -145 -11 -63 -23 -131 -26 -150 -3 -19 -12 -71 -20 -115 -8 -44 -17
-93 -20 -110 -10 -57 -36 -210 -41 -240 -7 -43 -22 -135 -29 -170 -3 -16 -21
-118 -39 -225 -19 -107 -37 -208 -40 -225 -3 -16 -23 -136 -46 -265 -23 -129
-43 -246 -45 -260 -3 -14 -12 -68 -21 -120 -9 -52 -18 -102 -19 -112 -2 -9 -7
-38 -11 -65 -5 -26 -9 -50 -9 -53 -1 -3 -5 -25 -9 -50 -4 -25 -16 -90 -26
-145 -10 -55 -21 -118 -24 -140 -4 -22 -11 -65 -16 -95 -5 -30 -12 -68 -15
-85 -2 -16 -7 -41 -10 -55 -3 -14 -7 -38 -10 -55 -11 -65 -16 -93 -29 -170 -8
-44 -17 -100 -21 -125 -3 -25 -8 -52 -10 -60 -2 -8 -7 -31 -10 -50 -3 -19 -12
-71 -20 -115 -8 -44 -17 -96 -20 -115 -3 -19 -15 -87 -26 -150 -12 -63 -23
-126 -25 -140 -3 -14 -7 -36 -9 -50 -3 -14 -7 -43 -11 -65 -3 -22 -7 -47 -9
-55 -3 -8 -7 -33 -10 -55 -12 -75 -16 -100 -35 -205 -11 -58 -22 -118 -24
-135 -3 -16 -14 -83 -26 -149 -11 -65 -20 -119 -20 -120 0 -1 47 -1 104 -1
l105 0 44 105 c145 344 350 829 362 855 7 17 25 59 40 95 15 36 70 166 122
290 52 124 126 299 164 390 39 91 74 174 79 185 5 11 16 36 23 55 24 58 236
560 251 594 8 17 62 146 121 286 59 140 156 370 215 510 60 140 125 296 145
345 20 50 45 108 55 130 10 22 60 139 110 260 51 121 101 240 112 265 64 143
149 352 145 356 -5 5 -67 12 -182 19 -55 4 -116 8 -135 10 -19 2 -73 6 -120
10 -92 7 -160 12 -255 20 -33 2 -96 7 -140 10 -44 2 -107 7 -140 10 -33 4 -85
8 -115 10 -190 12 -256 18 -262 22 -5 2 -8 2 -8 0z"/>
<path d="M5556 5912 c-3 -5 -8 -24 -11 -43 -3 -19 -8 -41 -10 -49 -2 -8 -7
-40 -10 -70 -4 -30 -8 -57 -10 -60 -2 -3 -10 -45 -19 -95 -8 -49 -27 -157 -41
-240 -67 -384 -96 -552 -100 -575 -3 -24 -71 -410 -80 -460 -3 -14 -12 -65
-20 -115 -18 -109 -22 -128 -40 -230 -8 -44 -17 -98 -20 -120 -4 -22 -8 -47
-10 -55 -2 -8 -6 -28 -9 -45 -3 -16 -17 -100 -32 -185 -24 -142 -32 -188 -48
-275 -3 -16 -9 -57 -15 -90 -5 -33 -28 -166 -51 -295 -22 -129 -43 -248 -46
-265 -2 -16 -7 -46 -11 -65 -3 -19 -7 -44 -9 -55 -2 -11 -10 -58 -19 -105 -31
-171 -85 -481 -90 -512 -2 -18 -7 -44 -9 -58 -3 -13 -8 -40 -11 -60 -3 -20 -7
-45 -9 -57 -3 -12 -8 -43 -12 -70 -5 -26 -9 -50 -9 -53 -1 -3 -5 -25 -9 -50
-5 -25 -10 -54 -12 -65 -3 -11 -7 -36 -10 -55 -3 -19 -7 -42 -9 -50 -2 -8 -7
-33 -10 -55 -3 -22 -14 -86 -24 -143 -10 -56 -16 -104 -12 -105 3 -2 50 -3
105 -3 l99 1 42 100 c72 171 169 402 255 605 45 107 88 209 95 225 7 17 100
235 205 485 105 250 198 469 205 485 7 17 49 116 93 220 185 440 422 1002 452
1070 10 22 38 92 64 155 26 63 51 122 56 131 4 9 25 56 45 105 20 49 44 105
52 124 28 65 32 75 89 210 31 74 62 149 69 165 8 17 72 168 143 338 102 242
126 307 113 308 -9 0 -27 2 -41 4 -14 1 -68 6 -120 10 -109 8 -166 12 -265 20
-68 5 -90 7 -280 21 -49 3 -103 8 -120 9 -16 1 -70 6 -120 9 -49 4 -112 9
-140 11 -27 2 -93 7 -145 11 -52 3 -98 8 -102 10 -4 3 -9 0 -12 -4z"/>
</g>
</svg>
