<?xml version="1.0" encoding="utf-8"?>
<!-- Generator: Adobe Illustrator 25.2.3, SVG Export Plug-In . SVG Version: 6.00 Build 0)  -->
<svg version="1.1" id="图层_1" xmlns="http://www.w3.org/2000/svg" xmlns:xlink="http://www.w3.org/1999/xlink" x="0px" y="0px"
	 viewBox="0 0 2440 600" style="enable-background:new 0 0 2440 600;" xml:space="preserve">
<style type="text/css">
	.st0{fill:#9933CC;}
	.st1{fill:#FFFFFF;}
	.st2{fill:#3366CC;}
	.st3{fill:#33CC66;}
	.st4{fill:#E0A55F;}
</style>
<g>
	<g>
		<polygon class="st0" points="108.5,8 225.5,17 54.5,422 36.5,422 		"/>
		<polygon class="st1" points="207.5,80 449.15,80 495.5,80 423.5,323 234.5,314 234.5,296 396.5,278 378.5,143 189.5,125 		"/>
		<polygon class="st1" points="162.5,188 216.5,188 189.5,323 583.14,338.64 459.5,593 162.5,593 171.5,566 432.5,539 405.5,404
			90.5,359 		"/>
		<polygon class="st1" points="27.5,467 369.5,422 360.5,449 9.5,566 		"/>
	</g>
	<g>
		<polygon class="st2" points="729.5,8 846.5,17 675.5,422 657.5,422 		"/>
		<polygon class="st1" points="828.5,80 1197.5,170 1179.5,251 810.5,125 		"/>
		<polygon class="st1" points="693.5,413 711.5,584 1071.5,584 1143.5,377 738.5,296 693.5,404 720.5,422 756.5,341 1008.5,413
			1044.5,548 738.5,557 720.5,431 		"/>
		<polygon class="st1" points="792.5,170 765.5,233 1143.5,332 1152.5,314 		"/>
	</g>
	<g>
		<polygon class="st3" points="1341.5,8 1458.5,17 1287.5,422 1269.5,422 		"/>
		<polygon class="st1" points="1422.5,125 1683.5,224 1530.5,431 1791.5,485 1710.5,584 1359.5,413 1368.5,395 1494.5,422
			1566.5,251 1377.5,251 		"/>
	</g>
	<g>
		<polygon class="st4" points="1980.5,8 2097.5,17 1926.5,422 1908.5,422 		"/>
		<polygon class="st1" points="2070.5,107 2322.5,170 2223.5,287 2061.5,260 1935.5,584 1854.5,557 2052.5,233 2205.5,278
			2223.5,188 2061.5,152 		"/>
		<polygon class="st1" points="2079.5,287 2043.5,584 2250.5,566 2178.5,350 2196.5,332 2259.5,458 2403.5,530 2430.5,431
			2268.5,431 2196.5,305 2151.5,314 2187.5,539 2106.5,521 2097.5,287 		"/>
	</g>
</g>
</svg>
